HIERARCHY
ROOT joint_Root
{
	OFFSET 0.0 0.0 0.0
	CHANNELS 6 Xposition Yposition Zposition Zrotation Xrotation Yrotation 
	JOINT Hips
	{
		OFFSET 4.5925 91.4895 -427.239
		CHANNELS 6 Xposition Yposition Zposition Zrotation Xrotation Yrotation 
		JOINT Spine
		{
			OFFSET 15.7357 0.0 0.0
			CHANNELS 6 Xposition Yposition Zposition Zrotation Xrotation Yrotation 
			JOINT Chest
			{
				OFFSET 8.98455 -0.406207 0.0
				CHANNELS 6 Xposition Yposition Zposition Zrotation Xrotation Yrotation 
				JOINT Neck
				{
					OFFSET 16.3773 0.0 0.0
					CHANNELS 6 Xposition Yposition Zposition Zrotation Xrotation Yrotation 
					JOINT Head
					{
						OFFSET 6.45672 0.0 0.0
						CHANNELS 6 Xposition Yposition Zposition Zrotation Xrotation Yrotation 
						End Site
						{
							OFFSET 0.0 0.0 0.0
						}
					}
				}
				JOINT Shoulder_L
				{
					OFFSET 12.9942 -0.242716 4.98039
					CHANNELS 6 Xposition Yposition Zposition Zrotation Xrotation Yrotation 
					JOINT UpperArm_L
					{
						OFFSET 5.34809 0.0 0.0
						CHANNELS 6 Xposition Yposition Zposition Zrotation Xrotation Yrotation 
						JOINT LowerArm_L
						{
							OFFSET 24.3286 1.87007e-05 0.0
							CHANNELS 6 Xposition Yposition Zposition Zrotation Xrotation Yrotation 
							JOINT Hand_L
							{
								OFFSET 22.2916 0.0 0.0
								CHANNELS 6 Xposition Yposition Zposition Zrotation Xrotation Yrotation 
								End Site
								{
									OFFSET 0.0 0.0 0.0
								}
							}
						}
					}
				}
				JOINT Shoulder_R
				{
					OFFSET 12.9945 -0.242716 -4.98039
					CHANNELS 6 Xposition Yposition Zposition Zrotation Xrotation Yrotation 
					JOINT UpperArm_R
					{
						OFFSET -5.34813 0.0 0.0
						CHANNELS 6 Xposition Yposition Zposition Zrotation Xrotation Yrotation 
						JOINT LowerArm_R
						{
							OFFSET -24.3289 0.000322201 0.0
							CHANNELS 6 Xposition Yposition Zposition Zrotation Xrotation Yrotation 
							JOINT Hand_R
							{
								OFFSET -22.2915 -0.000108084 0.0
								CHANNELS 6 Xposition Yposition Zposition Zrotation Xrotation Yrotation 
								End Site
								{
									OFFSET 0.0 0.0 0.0
								}
							}
						}
					}
				}
			}
		}
		JOINT UpperLeg_L
		{
			OFFSET -2.19248 -6.46944 0.0
			CHANNELS 6 Xposition Yposition Zposition Zrotation Xrotation Yrotation 
			JOINT LowerLeg_L
			{
				OFFSET 39.0811 0.0 -1.23785e-05
				CHANNELS 6 Xposition Yposition Zposition Zrotation Xrotation Yrotation 
				JOINT Foot_L
				{
					OFFSET 40.9854 0.0 -1.26872e-05
					CHANNELS 6 Xposition Yposition Zposition Zrotation Xrotation Yrotation 
					JOINT Toes_L
					{
						OFFSET 11.7543 0.0 0.0
						CHANNELS 6 Xposition Yposition Zposition Zrotation Xrotation Yrotation 
						End Site
						{
							OFFSET 0.0 0.0 0.0
						}
					}
				}
			}
		}
		JOINT UpperLeg_R
		{
			OFFSET -2.19251 6.46944 0.0
			CHANNELS 6 Xposition Yposition Zposition Zrotation Xrotation Yrotation 
			JOINT LowerLeg_R
			{
				OFFSET -39.0811 -0.00228153 -0.0401928
				CHANNELS 6 Xposition Yposition Zposition Zrotation Xrotation Yrotation 
				JOINT Foot_R
				{
					OFFSET -40.9854 0.0 0.0
					CHANNELS 6 Xposition Yposition Zposition Zrotation Xrotation Yrotation 
					JOINT Toes_R
					{
						OFFSET -11.7543 0.0 0.0
						CHANNELS 6 Xposition Yposition Zposition Zrotation Xrotation Yrotation 
						End Site
						{
							OFFSET 0.0 0.0 0.0
						}
					}
				}
			}
		}
	}
}
MOTION
Frames:	5
Frame Time:	0.0333333
0.000000 0.000000 0.000000 0.000000 0.000000 -0.000000 -0.010599 82.391800 -1.656710 90.308300 -7.152900 10.304200 15.735700 0.000005 -0.000001 90.852900 80.202100 -91.391200 8.984550 -0.406207 -0.000000 11.829200 0.270171 -1.104170 16.377300 -0.000001 -0.000001 -2.169410 -1.260910 0.659984 6.456720 -0.000001 -0.000000 -3.195940 -1.481790 4.808860 12.994200 -0.242716 4.980390 -91.687000 5.876070 -73.950300 5.348090 -0.000007 -0.000001 -66.763500 20.957500 -13.618000 24.328600 0.000019 0.000005 10.018700 17.152300 -30.927100 22.291600 -0.000001 0.000005 10.708500 5.344270 -1.227920 12.994500 -0.242716 -4.980390 88.695100 7.993230 -80.697100 -5.348130 -0.000001 -0.000004 -59.432800 34.361500 -12.422300 -24.328900 0.000322 -0.000009 1.852580 3.284000 -29.469600 -22.291500 -0.000108 -0.000004 19.269900 5.456050 -4.855050 -2.192480 -6.469440 -0.000000 -174.649000 -16.618000 -15.049000 39.081100 -0.000007 -0.000012 -0.457146 0.249246 61.400900 40.985400 -0.000006 -0.000013 2.022610 5.110940 -85.539300 11.754300 -0.000000 0.000003 -0.000615 -0.004732 -16.749000 -2.192510 6.469440 -0.000001 174.533000 13.164700 163.429000 -39.081100 -0.002282 -0.040193 0.074839 -0.037459 62.400500 -40.985400 0.000008 0.000006 8.011820 8.390880 -85.517100 -11.754300 -0.000006 -0.000006 -0.654244 -0.804654 -16.968100
0.000000 0.000000 0.000000 0.000000 0.000000 -0.000000 0.034885 83.730200 -1.129700 90.478700 -7.389040 10.148100 15.735700 0.000005 -0.000001 89.429600 80.749000 -89.358200 8.984550 -0.406207 -0.000000 10.735100 -0.181029 0.159693 16.377300 -0.000001 -0.000001 -1.069200 -0.959860 0.503872 6.456720 -0.000001 -0.000000 -2.170940 -0.842661 3.717620 12.994200 -0.242716 4.980390 -91.550400 5.103240 -73.074800 5.348090 -0.000007 -0.000001 -63.743200 18.727000 -16.159600 24.328600 0.000019 0.000005 11.249900 16.397200 -35.160300 22.291600 -0.000001 0.000005 6.817340 5.372050 -2.047620 12.994500 -0.242716 -4.980390 88.517000 8.359940 -79.903600 -5.348130 -0.000001 -0.000004 -60.770100 32.615500 -10.631100 -24.328900 0.000322 -0.000009 1.542050 2.939110 -27.712100 -22.291500 -0.000108 -0.000004 18.973400 5.443850 -4.421710 -2.192480 -6.469440 -0.000000 -175.011000 -16.245300 -12.820000 39.081100 -0.000007 -0.000012 -0.449105 0.287823 57.346000 40.985400 -0.000006 -0.000013 1.576920 4.620790 -83.911400 11.754300 -0.000000 0.000003 -0.000580 -0.004503 -16.741100 -2.192510 6.469440 -0.000001 174.385000 12.599600 165.523000 -39.081100 -0.002282 -0.040193 0.063339 -0.036815 58.522800 -40.985400 0.000008 0.000006 7.508920 8.501080 -83.934000 -11.754300 -0.000006 -0.000006 -0.609330 -0.748976 -16.971400
0.000000 0.000000 0.000000 0.000000 0.000000 -0.000000 -0.090420 85.670900 -0.567399 90.489200 -7.246550 9.804270 15.735700 0.000005 -0.000001 88.823500 81.532500 -87.960000 8.984550 -0.406207 -0.000000 9.168670 -0.335275 1.752340 16.377300 -0.000001 -0.000001 1.013250 -1.310510 0.383465 6.456720 -0.000001 -0.000000 -1.054340 -1.023060 2.567300 12.994200 -0.242716 4.980390 -91.188400 3.699090 -72.173700 5.348090 -0.000007 -0.000001 -56.129200 15.426300 -23.470700 24.328600 0.000019 0.000005 14.346500 16.958900 -41.249800 22.291600 -0.000001 0.000005 6.715190 5.382270 -2.368720 12.994500 -0.242716 -4.980390 88.340700 8.385110 -78.764100 -5.348130 -0.000001 -0.000004 -62.002900 31.175700 -7.485730 -24.328900 0.000322 -0.000009 0.832325 1.633130 -27.040100 -22.291500 -0.000108 -0.000004 18.511600 5.454750 -4.811760 -2.192480 -6.469440 -0.000000 -175.132000 -15.796200 -9.717710 39.081100 -0.000007 -0.000012 -0.407032 0.328414 51.102600 40.985400 -0.000006 -0.000013 1.119950 4.511430 -81.128600 11.754300 -0.000000 0.000003 -0.000498 -0.003968 -16.722600 -2.192510 6.469440 -0.000001 174.590000 12.138700 168.643000 -39.081100 -0.002282 -0.040193 0.049963 -0.035966 52.412600 -40.985400 0.000008 0.000006 6.909940 8.312410 -81.298900 -11.754300 -0.000006 -0.000006 -0.468660 -0.575836 -17.041600
0.000000 0.000000 0.000000 0.000000 0.000000 -0.000000 -0.379265 87.611400 -0.132104 90.139200 -6.684520 9.046480 15.735700 0.000005 -0.000001 88.377100 82.498600 -86.617600 8.984550 -0.406207 -0.000000 7.240010 -0.431384 3.542550 16.377300 -0.000001 -0.000001 3.364890 -2.366090 0.528708 6.456720 -0.000001 -0.000000 0.515786 -1.899380 1.959900 12.994200 -0.242716 4.980390 -90.639700 1.967280 -71.984000 5.348090 -0.000007 -0.000001 -48.326500 5.151800 -33.156800 24.328600 0.000019 0.000005 11.538200 11.445800 -45.825600 22.291600 -0.000001 0.000005 7.128260 5.355930 -1.564140 12.994500 -0.242716 -4.980390 88.199700 8.020040 -77.303600 -5.348130 -0.000001 -0.000004 -62.534000 30.588300 -4.348470 -24.328900 0.000322 -0.000009 0.900492 1.769210 -27.008500 -22.291500 -0.000108 -0.000004 17.246200 5.456170 -4.861630 -2.192480 -6.469440 -0.000000 -174.805000 -15.478300 -6.813340 39.081100 -0.000007 -0.000012 -0.346652 0.355813 44.253600 40.985400 -0.000006 -0.000013 0.799995 5.035110 -77.903100 11.754300 -0.000000 0.000003 -0.000358 -0.003017 -16.689200 -2.192510 6.469440 -0.000001 175.190000 12.630400 171.812000 -39.081100 -0.002282 -0.040193 0.038287 -0.034485 45.444200 -40.985400 0.000008 0.000006 6.483570 8.493470 -78.206000 -11.754300 -0.000006 -0.000006 -0.375626 -0.462616 -17.083000
0.000000 0.000000 0.000000 0.000000 0.000000 -0.000000 -0.712559 89.118800 0.256259 89.429500 -5.769510 8.234550 15.735700 0.000005 -0.000001 85.841700 83.386600 -83.178900 8.984550 -0.406207 -0.000000 5.455710 -1.010440 5.367780 16.377300 -0.000001 -0.000001 5.433860 -3.661720 1.163990 6.456720 -0.000001 -0.000000 1.631940 -3.063520 1.873860 12.994200 -0.242716 4.980390 -89.934200 -0.213175 -72.730600 5.348090 -0.000007 -0.000001 -41.252600 -10.115500 -42.696000 24.328600 0.000019 0.000005 7.154070 6.255590 -49.049500 22.291600 -0.000001 0.000005 11.121600 5.345460 -1.244710 12.994500 -0.242716 -4.980390 88.047300 7.689470 -75.704900 -5.348130 -0.000001 -0.000004 -61.839900 30.980200 -2.110220 -24.328900 0.000322 -0.000009 1.415280 2.752930 -27.237900 -22.291500 -0.000108 -0.000004 15.889400 5.451800 -4.703040 -2.192480 -6.469440 -0.000000 -174.055000 -15.093600 -4.484530 39.081100 -0.000007 -0.000012 -0.291362 0.368301 38.348100 40.985400 -0.000006 -0.000013 0.511569 5.793080 -75.073600 11.754300 -0.000000 0.000003 -0.000265 -0.002343 -16.665200 -2.192510 6.469440 -0.000001 175.714000 15.155200 174.828000 -39.081100 -0.002282 -0.040193 0.029504 -0.032405 38.981000 -40.985400 0.000008 0.000006 6.669800 10.091900 -75.537200 -11.754300 -0.000006 -0.000006 -0.271896 -0.337510 -17.125900
